<svg t="1748543372329" class="icon" viewBox="0 0 1030 1024" version="1.1" xmlns="http://www.w3.org/2000/svg" p-id="5957" width="200" height="200"><path d="M988.16 995.84H50.688c-14.336 0-25.6-11.264-25.6-25.6V329.728c0-14.336 11.264-25.6 25.6-25.6H988.16c14.336 0 25.6 11.264 25.6 25.6v640.512c0 14.336-11.264 25.6-25.6 25.6z m-911.872-51.2H962.56V355.328H76.288v589.312zM850.432 259.072H188.416c-14.336 0-25.6-11.264-25.6-25.6s11.264-25.6 25.6-25.6h662.016c14.336 0 25.6 11.264 25.6 25.6s-11.264 25.6-25.6 25.6zM740.352 165.888H298.496c-14.336 0-25.6-11.264-25.6-25.6s11.264-25.6 25.6-25.6h441.856c14.336 0 25.6 11.264 25.6 25.6s-11.264 25.6-25.6 25.6z" p-id="5958"></path><path d="M474.624 571.392c-7.68 0-15.36-3.584-20.48-9.728l-46.592-60.416c-8.704-11.264-6.656-27.136 4.608-35.84 11.264-8.704 27.136-6.656 35.84 4.608l46.592 60.416c8.704 11.264 6.656 27.136-4.608 35.84-4.608 3.584-9.728 5.12-15.36 5.12zM571.392 571.392c-5.632 0-11.264-2.048-15.872-5.632-11.264-8.704-12.8-25.088-4.096-35.84l47.616-60.416c8.704-11.264 25.088-12.8 35.84-4.096 11.264 8.704 12.8 25.088 4.096 35.84l-47.616 60.416c-5.12 6.144-12.288 9.728-19.968 9.728z" p-id="5959"></path><path d="M650.752 599.552H387.584c-14.336 0-25.6-11.264-25.6-25.6s11.264-25.6 25.6-25.6h263.168c14.336 0 25.6 11.264 25.6 25.6s-11.264 25.6-25.6 25.6zM650.752 719.872H387.584c-14.336 0-25.6-11.264-25.6-25.6s11.264-25.6 25.6-25.6h263.168c14.336 0 25.6 11.264 25.6 25.6s-11.264 25.6-25.6 25.6z" p-id="5960"></path><path d="M519.168 851.456c-14.336 0-25.6-11.264-25.6-25.6v-251.904c0-14.336 11.264-25.6 25.6-25.6s25.6 11.264 25.6 25.6v251.904c0 14.336-11.264 25.6-25.6 25.6z" p-id="5961"></path></svg>