<svg t="1748543569040" class="icon" viewBox="0 0 1024 1024" version="1.1" xmlns="http://www.w3.org/2000/svg" p-id="9968" width="200" height="200"><path d="M512 512m-512 0a512 512 0 1 0 1024 0 512 512 0 1 0-1024 0Z" fill="#3CA040" p-id="9969"></path><path d="M58.945637 493.324083m73.131812-73.131811l0.181019-0.18102q73.131812-73.131812 146.263623 0l215.775049 215.775049q73.131812 73.131812 0 146.263623l-0.181019 0.18102q-73.131812 73.131812-146.263624 0l-215.775048-215.775049q-73.131812-73.131812 0-146.263623Z" fill="#FFFFFF" p-id="9970"></path><path d="M782.196247 201.972506m73.131812 73.131812l0.181019 0.181019q73.131812 73.131812 0 146.263624l-360.590517 360.590517q-73.131812 73.131812-146.263624 0l-0.181019-0.181019q-73.131812-73.131812 0-146.263624l360.590517-360.590517q73.131812-73.131812 146.263624 0Z" fill="#FFFFFF" p-id="9971"></path></svg>